<?xml version="1.0" encoding="UTF-8"?>
<svg version="1.1" xmlns="http://www.w3.org/2000/svg" width="1024" height="1024">
<path d="M0 0 C1.31314682 -0.00705963 2.62629364 -0.01411926 3.97923279 -0.02139282 C8.19970246 -0.04093958 12.42011431 -0.04608521 16.640625 -0.046875 C17.35990299 -0.04716957 18.07918098 -0.04746414 18.82025528 -0.04776764 C40.31556838 -0.0491905 61.56639756 0.15136694 82.890625 3.203125 C83.6036377 3.30258423 84.31665039 3.40204346 85.05126953 3.5045166 C136.49110975 10.6858371 185.45206129 25.05137528 232.890625 46.203125 C233.78507324 46.59999512 234.67952148 46.99686523 235.60107422 47.40576172 C249.18225982 53.47908559 262.03255283 60.73954473 274.890625 68.203125 C276.49606627 69.12765189 278.1015333 70.05213404 279.70703125 70.9765625 C287.9748373 75.7621866 296.03733394 80.75569895 303.890625 86.203125 C304.51372559 86.63318848 305.13682617 87.06325195 305.77880859 87.50634766 C320.83369904 97.91837798 335.4429863 108.84402302 349.28710938 120.82617188 C350.94968831 122.25384319 352.62884245 123.6597684 354.3125 125.0625 C362.4461377 131.87337401 370.00771972 139.11195829 377.41943359 146.69921875 C380.68535477 150.03776412 384.00688832 153.31860318 387.34375 156.5859375 C393.92071048 163.05171624 400.22029256 169.49972539 405.93359375 176.75 C407.75647379 179.0349674 409.66031761 181.17971699 411.640625 183.328125 C417.25958621 189.58382734 422.2443256 196.35050117 427.28857422 203.0703125 C428.73402936 204.994649 430.18859511 206.91171912 431.64453125 208.828125 C449.62310801 232.70388852 464.44184031 258.56855804 477.890625 285.203125 C478.36000488 286.13108887 478.82938477 287.05905273 479.31298828 288.01513672 C503.54487919 336.30068046 518.70988943 388.97721148 526.203125 442.390625 C526.35031982 443.43710205 526.49751465 444.4835791 526.64916992 445.56176758 C527.11333033 449.1042159 527.51715861 452.65023356 527.890625 456.203125 C527.97676056 457.00679504 528.06289612 457.81046509 528.15164185 458.63848877 C529.91657383 475.62042852 530.25467092 492.54766627 530.20868301 509.60852051 C530.20303927 511.73543371 530.20022107 513.86233894 530.19760132 515.98925781 C530.16138501 536.21291642 529.76011954 556.15055491 526.890625 576.203125 C526.64119141 578.08161133 526.64119141 578.08161133 526.38671875 579.99804688 C514.94064559 665.50445264 482.25297533 746.78704859 421.890625 828.203125 C421.06957275 829.23397217 421.06957275 829.23397217 420.23193359 830.28564453 C414.30649475 837.72511702 408.29542773 845.04341224 401.859375 852.05078125 C400.03359179 854.04682599 398.27112435 856.08288166 396.515625 858.140625 C391.91654081 863.42742272 386.87536637 868.28455276 381.890625 873.203125 C379.077322 876.0026373 376.2842065 878.82023546 373.5078125 881.65625 C367.04203376 888.23321048 360.59402461 894.53279256 353.34375 900.24609375 C351.0587826 902.06897379 348.91403301 903.97281761 346.765625 905.953125 C340.50992266 911.57208621 333.74324883 916.5568256 327.0234375 921.60107422 C325.099101 923.04652936 323.18203088 924.50109511 321.265625 925.95703125 C297.38986148 943.93560801 271.52519196 958.75434031 244.890625 972.203125 C243.96266113 972.67250488 243.03469727 973.14188477 242.07861328 973.62548828 C173.52021563 1008.03122308 96.89274008 1024.73586673 20.40399933 1024.52118301 C18.35614442 1024.51552981 16.30829784 1024.51271747 14.26043701 1024.51010132 C-6.00843906 1024.47248142 -26.00009663 1023.97644207 -46.109375 1021.203125 C-47.38022949 1021.03683594 -48.65108398 1020.87054687 -49.96044922 1020.69921875 C-102.2779648 1013.72785332 -153.5013317 999.11368654 -201.109375 976.203125 C-202.16688965 975.69555664 -203.2244043 975.18798828 -204.31396484 974.66503906 C-243.52829408 955.72407023 -280.68556664 932.18752304 -313.5703125 903.53173828 C-315.20406169 902.12138563 -316.85735824 900.73689086 -318.515625 899.35546875 C-326.65574951 892.54192487 -334.22182234 885.29904916 -341.63818359 877.70703125 C-344.90410477 874.36848588 -348.22563832 871.08764682 -351.5625 867.8203125 C-358.13946048 861.35453376 -364.43904256 854.90652461 -370.15234375 847.65625 C-371.97522379 845.3712826 -373.87906761 843.22653301 -375.859375 841.078125 C-381.47833621 834.82242266 -386.4630756 828.05574883 -391.50732422 821.3359375 C-392.95277936 819.411601 -394.40734511 817.49453088 -395.86328125 815.578125 C-413.84185801 791.70236148 -428.66059031 765.83769196 -442.109375 739.203125 C-442.81344482 737.8111792 -442.81344482 737.8111792 -443.53173828 736.39111328 C-478.32866877 667.05320171 -494.63456182 590.03995836 -494.421875 512.765625 C-494.41965233 511.33719896 -494.41747582 509.90877285 -494.41534424 508.48034668 C-494.3728565 487.92752254 -494.07595284 467.58359346 -491.109375 447.203125 C-491.0075592 446.49764526 -490.90574341 445.79216553 -490.80084229 445.06530762 C-483.31718516 393.55609631 -469.39118616 344.74600123 -448.109375 297.203125 C-447.71395508 296.31302734 -447.31853516 295.42292969 -446.91113281 294.50585938 C-440.83628963 280.91922864 -433.57163983 268.06829372 -426.109375 255.203125 C-425.20801565 253.63299483 -424.30695235 252.06269465 -423.40625 250.4921875 C-418.00955576 241.1386843 -412.25563305 232.08159251 -406.109375 223.203125 C-405.71282715 222.63029785 -405.3162793 222.0574707 -404.90771484 221.46728516 C-394.70426536 206.81157323 -383.81743903 192.68628261 -372.109375 179.203125 C-371.15804687 178.10097656 -371.15804687 178.10097656 -370.1875 176.9765625 C-368.50663039 175.04124933 -366.81117344 173.1200492 -365.109375 171.203125 C-364.42488281 170.42582031 -363.74039063 169.64851562 -363.03515625 168.84765625 C-357.6077896 162.73831683 -351.92979476 156.93681665 -346.109375 151.203125 C-343.29596502 148.40373533 -340.50290808 145.5860478 -337.7265625 142.75 C-331.27825458 136.19079597 -324.85057322 129.91266879 -317.6171875 124.21875 C-315.1894086 122.26745107 -312.93972497 120.21164239 -310.671875 118.078125 C-281.0303368 91.11844026 -244.68566026 70.16691623 -209.109375 52.203125 C-207.7174292 51.49905518 -207.7174292 51.49905518 -206.29736328 50.78076172 C-143.51312136 19.27276195 -70.44710605 0.25244786 0 0 Z " fill="#FEFEFE" transform="translate(494.109375,-0.203125)"/>
<path d="M0 0 C0.96807213 -0.00583219 1.93614426 -0.01166439 2.93355191 -0.01767331 C3.98927706 -0.01389399 5.04500221 -0.01011467 6.13271904 -0.00622082 C7.26037394 -0.01004636 8.38802885 -0.01387191 9.54985511 -0.01781338 C13.33670934 -0.02814999 17.12341212 -0.02414986 20.91027641 -0.02018261 C23.62220003 -0.02343481 26.33411517 -0.02964711 29.04603386 -0.03567028 C35.65380345 -0.04842379 42.26153242 -0.05021001 48.86931224 -0.04787002 C54.24286409 -0.04608673 59.61640362 -0.04783674 64.98995399 -0.05209446 C66.13733649 -0.05298724 66.13733649 -0.05298724 67.30789842 -0.05389806 C68.86191671 -0.05510983 70.415935 -0.05632397 71.96995328 -0.05754044 C86.54750441 -0.06841936 101.12503241 -0.06625235 115.70258485 -0.06015559 C129.02560928 -0.0549912 142.34856049 -0.06622862 155.67157044 -0.08525381 C169.35962898 -0.10464993 183.04765291 -0.11288478 196.73572528 -0.10913056 C204.41717491 -0.10722055 212.09856229 -0.1096861 219.78000069 -0.1238451 C226.32255303 -0.1357828 232.86500485 -0.13713743 239.40755863 -0.12505493 C242.7426523 -0.11918166 246.07741238 -0.11966251 249.41251755 -0.13005733 C253.03662415 -0.14053621 256.6602411 -0.13241412 260.28433037 -0.11974621 C261.32667119 -0.12712049 262.36901201 -0.13449478 263.44293892 -0.14209253 C278.60274385 -0.03103456 288.45094477 5.25450572 298.97836113 15.82912159 C299.77557579 16.64495716 300.57279045 17.46079273 301.39416313 18.30135059 C302.23995934 19.15376331 303.08575554 20.00617603 303.95718193 20.88441944 C306.63355279 23.58402381 309.29947029 26.29365492 311.96447563 29.00447559 C314.65266855 31.72776116 317.34301871 34.44886687 320.03603935 37.16737843 C321.70532805 38.85361716 323.37151981 40.54292857 325.03426933 42.23561573 C326.1615696 43.3775539 326.1615696 43.3775539 327.3116436 44.54256153 C327.97066673 45.21285389 328.62968987 45.88314625 329.3086834 46.5737505 C331.18692359 48.44055684 331.18692359 48.44055684 334.08947563 50.25447559 C334.08947563 50.91447559 334.08947563 51.57447559 334.08947563 52.25447559 C334.68529945 52.52581507 335.28112328 52.79715454 335.89500237 53.07671642 C338.05636834 54.23670713 339.46986712 55.37887883 341.2010479 57.09862232 C341.7897567 57.67880116 342.3784655 58.25897999 342.98501396 58.85674 C343.61890038 59.49153278 344.25278679 60.12632557 344.90588188 60.7803545 C345.58279076 61.45054615 346.25969963 62.1207378 346.9571209 62.81123829 C349.19408314 65.0291984 351.42342082 67.25463253 353.65197563 69.48103809 C355.20594551 71.02858049 356.7600655 72.57597215 358.31432915 74.12321949 C361.57271131 77.36962253 364.82692792 80.620138 368.07873344 83.87312794 C372.23806694 88.03266439 376.41096913 92.17828967 380.5875988 96.32044888 C383.80300356 99.51356884 387.00922875 102.71578624 390.21298027 105.92059422 C391.74709326 107.45235268 393.28443769 108.98088203 394.82510185 110.50605106 C396.98408941 112.64535273 399.12992863 114.79706816 401.27306938 116.9522295 C401.9069558 117.5748769 402.54084221 118.1975243 403.1939373 118.8390398 C409.96392062 125.70549397 413.21968923 132.60037746 413.20300102 142.29622364 C413.20314705 143.00867237 413.20329308 143.7211211 413.20344353 144.45515919 C413.20274714 146.8088686 413.19496756 149.16249877 413.18713188 151.51619434 C413.18526673 153.14858424 413.18384328 154.7809747 413.18284416 156.41336536 C413.17902664 160.70909134 413.16920287 165.00478349 413.15814018 169.3004961 C413.14790962 173.68423982 413.14334301 178.067989 413.13830376 182.45174122 C413.12757994 191.0526682 413.11051268 199.65356769 413.08947563 208.25447559 C413.78501549 208.24559315 414.48055534 208.2367107 415.19717216 208.22755909 C421.81499614 208.14675768 428.43267857 208.08618315 435.05088806 208.04722691 C438.45182612 208.02652435 441.85235004 207.99853374 445.25304985 207.95271778 C449.18040297 207.90367995 453.10718253 207.88138775 457.03478813 207.86385059 C458.82941994 207.83288288 458.82941994 207.83288288 460.66030693 207.80128956 C476.69818416 207.79711299 490.792623 212.97000526 502.46447563 224.06697559 C510.81332852 232.91087264 518.23816212 245.32208479 518.20300102 257.83943653 C518.20292549 258.74006824 518.20284996 259.64069996 518.20277214 260.56862354 C518.19761086 261.53229847 518.19244957 262.4959734 518.18713188 263.48885059 C518.18571693 264.48201283 518.18430199 265.47517506 518.18284416 266.49843311 C518.17725151 269.66714472 518.16470033 272.83578538 518.15197563 276.00447559 C518.14695968 278.15421416 518.14239694 280.30395383 518.13830376 282.45369434 C518.12813585 287.72067067 518.1085589 292.98749383 518.08947563 298.25447559 C506.86947563 298.25447559 495.64947563 298.25447559 484.08947563 298.25447559 C484.08947563 284.06447559 484.08947563 269.87447559 484.08947563 255.25447559 C473.39478407 262.83130245 473.39478407 262.83130245 463.02697563 270.75447559 C461.86076023 271.68082525 460.69408257 272.60659319 459.52697563 273.53181934 C458.95592094 273.98540821 458.38486626 274.43899708 457.79650688 274.90633106 C455.05915675 277.06817995 452.2945048 279.19397952 449.52697563 281.31697559 C448.99378716 281.7263335 448.46059868 282.13569141 447.91125298 282.55745411 C445.76992025 284.2006138 443.6274254 285.8422548 441.48498344 287.48396778 C434.84744421 292.57207537 428.23838622 297.69314414 421.66955376 302.86970997 C416.84803527 306.66672179 412.0014825 310.43080859 407.15197563 314.19197559 C401.57235055 318.5210356 396.02713732 322.88743361 390.52697563 327.31697559 C385.29835063 331.52783616 379.99976361 335.63367352 374.65197563 339.69197559 C367.51036803 345.1135978 360.53674654 350.71815018 353.59728813 356.39510059 C350.24081089 359.13921155 346.84032241 361.81952533 343.40588188 364.46541309 C339.78199586 367.26429977 336.18713329 370.09999776 332.58849907 372.93123341 C329.60907805 375.27504461 326.62800473 377.61659683 323.64025688 379.94978809 C317.38236162 384.84195086 311.17930063 389.79252792 305.02697563 394.81697559 C299.29419633 399.49533298 293.50000212 404.06682613 287.61681938 408.55525684 C283.14661235 411.96621057 278.71361025 415.42504643 274.27697563 418.87947559 C273.46889458 419.50845753 272.66081352 420.13743946 271.82824516 420.78548145 C269.91508915 422.27484756 268.00215811 423.76450143 266.08947563 425.25447559 C267.15814873 426.32206104 267.15814873 426.32206104 268.24841118 427.41121387 C271.02072595 430.18346779 273.78370886 432.96492374 276.54650688 435.74666309 C278.12431573 437.33185771 279.70261197 438.91656525 281.28112602 440.50105762 C282.35722943 441.58218576 283.43243307 442.66421026 284.50671196 443.74715137 C286.08003335 445.33277376 287.65671516 446.91499126 289.23400688 448.49666309 C289.9359996 449.20639774 289.9359996 449.20639774 290.652174 449.93047047 C293.33484233 452.61357573 296.09696405 455.15413281 298.9691143 457.63411427 C303.11736059 461.23090821 307.0048687 465.0419199 310.87072563 468.93806934 C311.56967949 469.63843815 312.26863335 470.33880695 312.98876762 471.06039906 C315.19139102 473.26856017 317.39048644 475.48019597 319.58947563 477.69197559 C321.09445071 479.20197374 322.59965698 480.71174149 324.10510063 482.22127247 C327.76923392 485.896352 331.43021043 489.57454915 335.08947563 493.25447559 C331.19738796 501.56262789 321.36071379 510.84101685 313.23791313 515.26228809 C309.58720358 515.24901279 307.54464196 512.4957541 305.08947563 510.06697559 C304.23833183 509.25353687 304.23833183 509.25353687 303.36999321 508.42366505 C298.50793619 503.75034724 293.75299974 498.96310154 289.03869438 494.14119434 C286.85551266 491.95194191 284.57626049 489.91685176 282.23400688 487.89900684 C277.25806526 483.59194106 272.69491695 478.91080444 268.08947563 474.21541309 C264.21498862 470.29552194 260.23757384 466.59639494 256.06213188 463.00008106 C252.76318941 460.0808436 249.68156504 456.952195 246.58947563 453.81697559 C245.95783501 453.18082325 245.32619438 452.54467091 244.67541313 451.88924122 C243.1444179 450.34664753 241.61659896 448.80090245 240.08947563 447.25447559 C236.27769532 449.06880527 233.12367186 451.44109798 229.83947563 454.06697559 C229.23103813 454.54908497 228.62260063 455.03119434 227.99572563 455.52791309 C222.64896506 459.77706631 217.35571268 464.09200467 212.06213188 468.40706348 C206.00427682 473.33932338 199.89315317 478.19694782 193.71691704 482.98006153 C192.13170814 484.22140423 190.56917132 485.4915293 189.00744438 486.76228809 C177.0991073 496.22028583 164.28932345 500.4974538 149.08947563 499.25447559 C134.75067879 496.57402483 124.17878897 489.53727926 113.43713188 480.14510059 C110.09705609 477.23148004 106.64760613 474.47833086 103.15197563 471.75447559 C102.28342949 471.07650928 102.28342949 471.07650928 101.39733696 470.38484669 C100.2217422 469.46855752 99.04555194 468.55303187 97.86877251 467.63826466 C94.8741325 465.30928283 91.88701774 462.9707413 88.90197563 460.62947559 C88.03947197 459.95308033 88.03947197 459.95308033 87.15954399 459.26302052 C81.74097342 455.00176958 76.40292337 450.64620281 71.08947563 446.25447559 C64.94172034 451.29328826 59.37085749 456.85542914 53.77850342 462.49028301 C52.06012385 464.22157733 50.33850786 465.94959615 48.6160717 467.67685413 C44.34029601 471.96590822 40.07000132 476.26040578 35.79955864 480.55476856 C32.18255682 484.19161118 28.56343853 487.82632323 24.94157028 491.45831966 C23.25794976 493.14835081 21.57740668 494.84139981 19.89698601 496.5346117 C18.84875128 497.5864843 17.80037288 498.63821375 16.75182915 499.68977833 C15.84916817 500.59767612 14.94650719 501.50557392 14.01649284 502.44098377 C11.94671045 504.47482651 9.79847716 506.37357727 7.58982658 508.25511646 C1.22536705 513.78024918 -4.63093027 519.84415584 -10.57849312 525.80891895 C-11.97096381 527.20169637 -13.36365518 528.59425319 -14.75654793 529.98660851 C-18.46900608 533.6988419 -22.17845639 537.41406685 -25.88726997 541.12994099 C-29.37439597 544.62278323 -32.86425415 548.11288944 -36.35388374 551.60323048 C-46.54216403 561.79674757 -56.72608061 571.99462538 -66.91052437 582.19197559 C-101.06552437 616.37791309 -101.06552437 616.37791309 -135.91052437 651.25447559 C46.74447563 651.74947559 46.74447563 651.74947559 233.08947563 652.25447559 C236.57161849 676.62947559 236.57161849 676.62947559 237.08947563 685.25447559 C188.34037412 685.32314217 139.5912775 685.37600462 90.84213714 685.40767158 C85.08685536 685.4114237 79.33157367 685.41530667 73.57629204 685.41927052 C72.43051907 685.42005745 71.2847461 685.42084438 70.10425274 685.42165516 C51.55206266 685.43470907 32.99990046 685.45836285 14.44772692 685.48593398 C-4.58850853 685.51398855 -23.62472936 685.53065197 -42.66098464 685.53674108 C-54.40736045 685.5408574 -66.15365744 685.5538586 -77.90000899 685.57822499 C-85.95491823 685.5940828 -94.00978671 685.59887584 -102.06471042 685.59497973 C-106.71196484 685.59305826 -111.3590815 685.59600395 -116.00631142 685.61209202 C-120.2641141 685.62672412 -124.52168678 685.62740651 -128.7795002 685.61717228 C-130.3166847 685.61590796 -131.85388374 685.61968543 -133.39103977 685.62912514 C-141.66301076 685.67695388 -149.12755064 685.32104659 -156.91052437 682.25447559 C-157.83864937 681.88967091 -158.76677437 681.52486622 -159.72302437 681.14900684 C-175.00483851 673.58996664 -186.09457277 661.59318453 -191.72302437 645.44197559 C-193.49983535 639.87463451 -194.03569084 634.41408921 -194.04474545 628.58666611 C-194.04709768 627.93867905 -194.04944991 627.29069199 -194.05187342 626.62306896 C-194.05852299 624.4547722 -194.05810642 622.28653593 -194.05769539 620.11822987 C-194.06099653 618.54664188 -194.06472262 616.97505474 -194.06883687 615.40346867 C-194.07883642 611.08672026 -194.08257036 606.76998575 -194.08522618 602.4532274 C-194.08913526 597.79659301 -194.09871312 593.13996956 -194.10743904 588.48334217 C-194.12718549 577.23911489 -194.13726696 565.99488673 -194.14616683 554.75064644 C-194.15055236 549.45305914 -194.15591845 544.15547283 -194.1611557 538.85788631 C-194.17816549 521.2437263 -194.19265948 503.6295669 -194.19990444 486.01539993 C-194.20181427 481.44624741 -194.20373461 476.87709489 -194.20569038 472.30794239 C-194.20617412 471.17233059 -194.20665786 470.03671879 -194.20715626 468.86669452 C-194.21545593 450.47209288 -194.2407929 432.07755628 -194.27327106 413.68298303 C-194.30635675 394.79005168 -194.32435453 375.89715336 -194.32754868 357.00419289 C-194.32971228 346.39955997 -194.33843911 335.79502194 -194.36400986 325.19041729 C-194.38573738 316.1589313 -194.39375712 307.12756324 -194.38404308 298.09605407 C-194.37950446 293.49087868 -194.38135909 288.88594652 -194.40080452 284.28080463 C-194.41848024 280.05817709 -194.41740298 275.83596944 -194.40190723 271.61333717 C-194.39953784 270.09242877 -194.40381973 268.57149096 -194.41573588 267.0506274 C-194.53777852 250.43406275 -190.25376107 236.50172428 -178.87927437 224.12947559 C-166.7087803 212.53852886 -152.34967575 207.9201233 -135.89489937 208.02742481 C-134.71354912 208.02713276 -133.53219887 208.02684071 -132.31505013 208.0265398 C-128.43013217 208.02792746 -124.54540862 208.04346234 -120.66052437 208.05916309 C-117.95910944 208.06401023 -115.25769471 208.0658397 -112.55627632 208.06773853 C-106.18517703 208.07393746 -99.81414695 208.09032663 -93.44307804 208.11043751 C-86.18548294 208.13284611 -78.92788441 208.14380238 -71.67026329 208.15382838 C-56.75031186 208.17469439 -41.83042506 208.20983927 -26.91052437 208.25447559 C-26.91421154 207.29902379 -26.91789871 206.34357199 -26.92169762 205.3591671 C-27.01054345 182.09797138 -27.07624999 158.83679769 -27.11777306 135.57546806 C-27.13838765 124.32640072 -27.16648729 113.07744555 -27.21228218 101.8284502 C-27.25218356 92.02244425 -27.2779652 82.21651955 -27.28687835 72.41043466 C-27.29208747 67.21941534 -27.30430804 62.02862843 -27.3334446 56.83768368 C-27.36066575 51.94820773 -27.36895579 47.05905918 -27.36295509 42.16951466 C-27.36405233 40.37850062 -27.37196619 38.58747524 -27.38734627 36.79652691 C-27.52886073 19.46231172 -27.52886073 19.46231172 -22.91052437 12.25447559 C-22.35364937 11.34697559 -21.79677437 10.43947559 -21.22302437 9.50447559 C-15.74651266 4.17597771 -7.70787323 0.00801466 0 0 Z " fill="#D7352D" transform="translate(298.91052436828613,118.7455244064331)"/>
<path d="M0 0 C191.73 0 383.46 0 581 0 C577.75590991 3.24409009 574.99504257 5.90940316 571.41015625 8.6015625 C570.55075439 9.2507666 569.69135254 9.8999707 568.8059082 10.56884766 C567.9005835 11.24737793 566.99525879 11.9259082 566.0625 12.625 C564.16085276 14.0616988 562.25981146 15.49919998 560.359375 16.9375 C559.43705078 17.63488281 558.51472656 18.33226562 557.56445312 19.05078125 C554.28689214 21.54202715 551.04194882 24.07184259 547.8125 26.625 C542.56063395 30.7747194 537.28665695 34.89466947 532 39 C524.87654864 44.53429879 517.77303167 50.09308271 510.68554688 55.67333984 C507.79191173 57.95086206 504.89580677 60.22524007 502 62.5 C500.83332204 63.4166523 499.66665536 64.33331895 498.5 65.25 C477.5 81.75 477.5 81.75 475.74902344 83.12573242 C474.58556677 84.03990015 473.42215511 84.95412516 472.25878906 85.8684082 C469.29338101 88.198787 466.32713143 90.52808115 463.359375 92.85546875 C458.22381628 96.88422602 453.09129778 100.91531502 448 105 C442.30534887 109.56874789 436.55933139 114.0713853 430.81445312 118.57666016 C427.2906815 121.34086744 423.76988596 124.10886421 420.2487793 126.87646484 C417.34580062 129.15792545 414.44172748 131.43796129 411.53515625 133.71484375 C404.86520503 138.94264335 398.22761102 144.20822798 391.61669922 149.51049805 C386.74414545 153.41474733 381.84081997 157.27832532 376.92675781 161.13012695 C371.18172705 165.63553542 365.47924604 170.19316144 359.796875 174.77734375 C354.3700112 179.14283112 348.88140546 183.42324122 343.375 187.6875 C337.4180254 192.3025903 331.52028821 196.97894543 325.6875 201.75 C319.87645372 206.49962559 314.01902949 211.1686778 308.03515625 215.69921875 C306.00313789 217.23957758 303.98998215 218.80512476 301.99609375 220.39453125 C298.22306092 223.32569009 295.11792032 225.68059419 290.5 227 C284.7535553 225.35815866 280.57750821 221.7227533 276 218 C275.39446289 217.51241211 274.78892578 217.02482422 274.16503906 216.52246094 C270.78134848 213.79675754 267.41186821 211.05429473 264.05078125 208.30078125 C260.35885173 205.28218393 256.6297021 202.31500759 252.875 199.375 C252.30402588 198.92777588 251.73305176 198.48055176 251.14477539 198.01977539 C249.43069003 196.67877138 247.71555987 195.33911702 246 194 C238.58807645 188.21446425 231.22007471 182.38545768 223.9375 176.4375 C218.52458399 172.01708192 213.05633862 167.68711018 207.50048828 163.44799805 C204.40605875 161.08615672 201.34364095 158.69246963 198.3125 156.25 C193.68885653 152.5270663 189.00382867 148.88688269 184.3125 145.25 C178.64910524 140.85885101 173.01813033 136.43334096 167.4375 131.9375 C162.20895233 127.72654688 156.9102949 123.6207858 151.5625 119.5625 C145.18435061 114.72070375 138.9377649 109.74227996 132.74291992 104.66870117 C127.63864755 100.49581456 122.44752035 96.45686201 117.20703125 92.45703125 C112.01569089 88.4920672 106.89670434 84.43412666 101.76611328 80.39111328 C98.84628952 78.09125763 95.92298107 75.79584055 93 73.5 C91.83331639 72.5833549 90.66664973 71.66668823 89.5 70.75 C88.9225 70.29625 88.345 69.8425 87.75 69.375 C86 68 84.25 66.625 82.5 65.25 C81.92258057 64.79633057 81.34516113 64.34266113 80.75024414 63.87524414 C79.5826959 62.95784991 78.41521551 62.04036933 77.24780273 61.12280273 C74.3451721 58.84155755 71.44140726 56.56178786 68.53515625 54.28515625 C62.47559604 49.53558682 56.44066631 44.75820113 50.4375 39.9375 C45.28555765 35.80244064 40.09098923 31.73147637 34.84350586 27.71850586 C30.28136438 24.22734853 25.76438864 20.68096732 21.25439453 17.12280273 C18.29490125 14.79144511 15.32516111 12.47556733 12.33203125 10.1875 C11.74099609 9.73568359 11.14996094 9.28386719 10.54101562 8.81835938 C8.91045972 7.57471504 7.27756892 6.33413373 5.64453125 5.09375 C3 3 3 3 0 0 Z " fill="#FEFEFE" transform="translate(164,360)"/>
<path d="M0 0 C84.15 0 168.3 0 255 0 C255.33 34.98 255.66 69.96 256 106 C259.82669931 113.90207955 259.82669931 113.90207955 266 119 C268.83369042 119.91691789 271.42344841 120.1328831 274.39129639 120.15821838 C275.26345291 120.1680072 276.13560944 120.17779602 277.03419495 120.18788147 C277.98293991 120.19363693 278.93168488 120.1993924 279.90917969 120.20532227 C280.91438156 120.21522186 281.91958344 120.22512146 282.95524597 120.23532104 C286.2774317 120.26690572 289.59963172 120.29168159 292.921875 120.31640625 C295.2254473 120.33697839 297.52901585 120.35797493 299.83258057 120.37937927 C305.89553793 120.43457308 311.9585292 120.48399429 318.02154541 120.53222656 C325.29617523 120.59129341 332.57074307 120.65750662 339.84532166 120.72252655 C350.89684325 120.82050222 361.9484046 120.90938155 373 121 C373 138.49 373 155.98 373 174 C249.91 174 126.82 174 0 174 C0 116.58 0 59.16 0 0 Z " fill="#FEFEFE" transform="translate(306,153)"/>
<path d="M0 0 C4.8685513 3.65141348 9.71978749 7.30008393 14.5 11.0625 C15.09039062 11.5265625 15.68078125 11.990625 16.2890625 12.46875 C21.58207977 16.64336822 26.80894657 20.89725632 32.03271484 25.15795898 C38.62197985 30.52436715 45.30135034 35.77122546 52 41 C60.07892496 47.306178 68.09211903 53.68123391 76.03417969 60.15917969 C82.06516488 65.07083269 88.16972902 69.88336246 94.29980469 74.67041016 C96.55141925 76.43122189 98.79681521 78.19987328 101.04248047 79.96826172 C107.01144805 84.66730883 113.00123334 89.33906506 119 94 C128.52599509 101.40331675 138.04520588 108.81314246 147.4465332 116.37451172 C154.10771308 121.73099628 160.84923402 126.96541785 167.65454102 132.13745117 C173.03480784 136.23626413 178.33107202 140.42946826 183.59521484 144.67602539 C188.71930512 148.80212171 193.9372557 152.79251669 199.1953125 156.74609375 C202.00377315 159.00303218 204.47340717 161.43599386 207 164 C203.87427529 167.15072128 200.7450669 170.29793136 197.61279297 173.44213867 C196.55099139 174.50892297 195.49009442 175.57660853 194.43017578 176.64526367 C192.89341087 178.19436334 191.35325887 179.74003011 189.8125 181.28515625 C188.89082031 182.21207275 187.96914063 183.13898926 187.01953125 184.09399414 C184.84852932 186.22833836 182.59611335 188.23097838 180.28621578 190.21378422 C176.15776816 193.81490202 172.26302412 197.60231621 168.40101624 201.48545837 C167.31988899 202.56636233 167.31988899 202.56636233 166.21692079 203.66910273 C163.82330197 206.06341125 161.43326798 208.46126534 159.04321289 210.85913086 C157.31976236 212.58450213 155.59608285 214.3096447 153.87219238 216.03457642 C150.17183729 219.73808409 146.47298097 223.4430816 142.77543831 227.1493969 C137.42893821 232.508489 132.07916753 237.86430683 126.72851544 243.21925313 C118.04503089 251.90978996 109.36341898 260.60219473 100.68334961 269.29614258 C100.16477835 269.81554165 99.64620708 270.33494073 99.11192154 270.87007917 C95.42873296 274.55917146 91.74561081 278.24833006 88.0625 281.9375 C83.84306732 286.16386803 79.62359901 290.39020046 75.40405273 294.61645508 C74.8839957 295.13734024 74.36393866 295.6582254 73.82812233 296.19489496 C65.17034541 304.86633656 56.51062052 313.53583028 47.84949297 322.20392519 C42.50817393 327.54973222 37.16864474 332.89731532 31.83138638 338.2471766 C27.75191368 342.33603603 23.66993764 346.42238858 19.58701324 350.50780106 C17.90787233 352.18882369 16.22960078 353.87071521 14.55223656 355.55351067 C12.27379614 357.83909985 9.99235467 360.12164934 7.71009827 362.40342712 C7.03755211 363.07956824 6.36500596 363.75570935 5.67207962 364.45233959 C1.11409324 369 1.11409324 369 0 369 C0 247.23 0 125.46 0 0 Z " fill="#FEFEFE" transform="translate(137,380)"/>
<path d="M0 0 C3.9313884 3.33903274 7.60944089 6.90764133 11.22460938 10.58349609 C12.05863281 11.41880859 12.89265625 12.25412109 13.75195312 13.11474609 C31.59315988 31.90138431 39.8336626 57.3327939 39.43554688 82.88037109 C38.20651437 119.14441675 18.05087439 143.94425745 -6.62304688 168.56396484 C-7.61159018 169.55318452 -8.59998524 170.54255236 -9.58824158 171.53205872 C-11.6310264 173.57629796 -13.67555861 175.61876761 -15.72143555 177.65991211 C-18.34419652 180.27690062 -20.96233853 182.89845769 -23.57924747 185.5212965 C-25.60626742 187.55191928 -27.63564933 189.58016798 -29.66576958 191.60769081 C-30.63337004 192.57462512 -31.60023078 193.54230025 -32.56633186 194.51073265 C-33.90581967 195.85275048 -35.24884324 197.19123643 -36.59204102 198.52954102 C-37.35384171 199.29054611 -38.1156424 200.05155121 -38.90052795 200.83561707 C-41.2839861 203.05764461 -42.3931991 203.53364503 -45.65039062 203.95849609 C-48.77539062 203.58349609 -48.77539062 203.58349609 -50.79589844 201.42358398 C-52.76240838 198.60212244 -54.1840575 195.90937266 -55.57226562 192.76708984 C-56.05566406 191.67332031 -56.5390625 190.57955078 -57.03710938 189.45263672 C-57.52824219 188.32019531 -58.019375 187.18775391 -58.52539062 186.02099609 C-59.03199219 184.8846875 -59.53859375 183.74837891 -60.06054688 182.57763672 C-63.77539062 174.09157182 -63.77539062 174.09157182 -63.77539062 169.58349609 C-62.08288574 167.43016052 -62.08288574 167.43016052 -59.6796875 165.08129883 C-58.78455444 164.19615097 -57.88942139 163.31100311 -56.96716309 162.39903259 C-56.48329636 161.93001966 -55.99942963 161.46100674 -55.50090027 160.9777813 C-53.97725719 159.50072261 -52.46616309 158.01179158 -50.9576416 156.51930237 C-47.74128402 153.34184815 -44.50884552 150.18103438 -41.27539062 147.02099609 C-37.55335034 143.37980901 -33.83831477 139.73177657 -30.13478088 136.07176399 C-28.6614172 134.62121187 -27.17877027 133.18067549 -25.69519043 131.74058533 C-16.59444609 122.76974777 -9.42682825 113.54685271 -4.77539062 101.58349609 C-4.45570313 100.84228516 -4.13601563 100.10107422 -3.80664062 99.33740234 C1.6766032 84.69003343 -1.52232188 67.33424919 -7.77539062 53.58349609 C-15.32574681 38.7273957 -28.5763263 27.92448717 -44.27539062 22.52099609 C-58.05664785 18.32714624 -74.6184506 18.7145548 -87.77539062 24.58349609 C-88.83628906 25.04626953 -89.8971875 25.50904297 -90.99023438 25.98583984 C-110.84620317 35.64230981 -126.43406225 56.18371831 -141.83081055 71.73486328 C-144.54537214 74.47611326 -147.26471333 77.21254483 -149.9871006 79.94602203 C-151.01727536 80.98240458 -152.04554871 82.02068075 -153.07187462 83.06087494 C-154.4928573 84.50095132 -155.92045496 85.93449154 -157.34838867 87.36767578 C-158.15745163 88.18419617 -158.96651459 89.00071655 -159.8000946 89.84197998 C-161.77539062 91.58349609 -161.77539062 91.58349609 -163.77539062 91.58349609 C-164.27039063 93.06849609 -164.27039063 93.06849609 -164.77539062 94.58349609 C-165.43539062 94.58349609 -166.09539062 94.58349609 -166.77539062 94.58349609 C-167.02933594 95.17646484 -167.28328125 95.76943359 -167.54492188 96.38037109 C-168.91165437 98.82747308 -170.29282044 100.07697563 -172.46289062 101.83349609 C-176.04131453 104.861891 -179.12011096 108.05756457 -182.13085938 111.64599609 C-183.77539062 113.58349609 -183.77539062 113.58349609 -185.26367188 115.08349609 C-196.48087455 126.69375438 -201.29379997 143.53579255 -201.19775391 159.24707031 C-200.73272503 174.66596879 -196.03762499 189.83393096 -185.09570312 201.06005859 C-183.77539062 202.58349609 -183.77539062 202.58349609 -183.77539062 204.58349609 C-183.20046875 204.84388672 -182.62554688 205.10427734 -182.03320312 205.37255859 C-179.61383409 206.67014406 -177.74531623 208.18824531 -175.65039062 209.95849609 C-166.58229299 217.09721125 -156.12059494 219.40307951 -144.77490234 219.86865234 C-137.90894227 220.15900781 -132.52405121 220.49310298 -126.77539062 224.58349609 C-122.45120695 230.01644481 -121.606583 234.05553878 -121.52539062 240.89599609 C-121.49960937 242.19150391 -121.47382812 243.48701172 -121.44726562 244.82177734 C-121.90606947 250.08163572 -123.40858602 253.31920184 -127.27539062 256.89599609 C-135.94522361 262.74813336 -152.79504855 260.4854828 -162.82226562 259.15771484 C-189.47146193 253.64525419 -211.73151326 234.98138123 -226.46289062 212.83349609 C-235.45131171 198.77161924 -241.19911906 181.2953716 -241.77539062 164.58349609 C-241.81535156 163.44525391 -241.8553125 162.30701172 -241.89648438 161.13427734 C-242.48172968 127.63759018 -228.3344768 102.32641835 -205.77539062 78.58349609 C-200.29479794 72.91662516 -194.72178627 67.34052922 -189.15429688 61.75927734 C-187.9838297 60.5845691 -187.9838297 60.5845691 -186.78971672 59.38612938 C-182.6677487 55.24928507 -178.54300345 51.11523498 -174.41577148 46.98364258 C-170.18526203 42.74763551 -165.96412812 38.50241262 -161.74508762 34.25498676 C-158.46681644 30.95799389 -155.18176098 27.66782328 -151.89488029 24.37941551 C-150.33646375 22.81799836 -148.78051664 21.25411201 -147.22723579 19.68758583 C-107.99732847 -19.85316592 -47.85417168 -38.18067988 0 0 Z " fill="#D7352D" transform="translate(905.775390625,457.41650390625)"/>
<path d="M0 0 C4.23013705 3.43871641 8.14427651 7.14990531 12 11 C12.72832031 11.71671875 13.45664062 12.4334375 14.20703125 13.171875 C33.26198914 33.16642647 38.67885633 59.08774373 38.3125 85.7578125 C38.03899074 94.55797306 36.73920879 102.64383894 34 111 C33.68651611 111.96800537 33.68651611 111.96800537 33.36669922 112.95556641 C29.13016233 125.55728026 22.58870775 137.17532202 13.89990234 147.23925781 C13.39119284 147.82950871 12.88248333 148.4197596 12.35835838 149.02789688 C4.55478148 157.93712661 -3.90634585 166.23539195 -12.2734375 174.609375 C-14.12860909 176.47099061 -15.9836377 178.33274871 -17.83853149 180.19464111 C-21.7058127 184.07461152 -25.57787861 187.94976313 -29.45214844 191.82275391 C-33.89658811 196.26599092 -38.32972508 200.72028836 -42.75776803 205.17986083 C-47.06414012 209.51577022 -51.3817509 213.84032645 -55.70351028 218.1608963 C-57.52058883 219.98031519 -59.33447189 221.80293191 -61.14490891 223.62895966 C-72.97630446 235.55273773 -84.72568772 247.13094481 -100.125 254.375 C-100.79112305 254.69678223 -101.45724609 255.01856445 -102.14355469 255.35009766 C-125.54404064 266.41061512 -152.6902125 267.25508589 -177.06640625 258.60546875 C-188.93023415 253.93256715 -199.63225524 247.68913648 -209 239 C-209.84949219 238.23042969 -210.69898438 237.46085938 -211.57421875 236.66796875 C-230.25783824 218.9571564 -241.20085853 193.74477857 -242.37109375 168.09765625 C-242.82203607 145.75768036 -238.61449574 125.38661354 -226.375 106.4375 C-226.02219971 105.88465332 -225.66939941 105.33180664 -225.3059082 104.76220703 C-215.22388767 89.92307198 -200.78369466 77.6264432 -188.12402344 64.99365234 C-185.38806819 62.26347373 -182.65673658 59.52871974 -179.92663383 56.79269028 C-177.81125854 54.67371288 -175.69352196 52.55710838 -173.57504654 50.44123077 C-172.56557979 49.43243015 -171.55685273 48.42288878 -170.54888535 47.41259003 C-169.15202984 46.01320524 -167.75163978 44.61735128 -166.35107422 43.22167969 C-165.55675995 42.42816101 -164.76244568 41.63464233 -163.94406128 40.81707764 C-161.3060344 38.35136336 -160.28911757 38.03212417 -156.625 37.625 C-153 38 -153 38 -150.95043945 40.15991211 C-147.65140939 44.96371943 -145.51726449 50.23948802 -143.1875 55.5625 C-142.4150293 57.26696289 -142.4150293 57.26696289 -141.62695312 59.00585938 C-141.14548828 60.09833984 -140.66402344 61.19082031 -140.16796875 62.31640625 C-139.72735107 63.31099854 -139.2867334 64.30559082 -138.83276367 65.33032227 C-137.89853041 68.32529169 -137.87473218 69.13403359 -139 72 C-140.96461487 74.28500366 -140.96461487 74.28500366 -143.57641602 76.82177734 C-144.28887733 77.52043915 -144.28887733 77.52043915 -145.01573181 78.23321533 C-146.04763513 79.24367651 -147.08286555 80.25074863 -148.1210041 81.2548027 C-149.77398718 82.85538181 -151.41591736 84.46656605 -153.05516052 86.08120728 C-157.71758694 90.67055057 -162.39588541 95.24342983 -167.08911133 99.80126953 C-169.96292293 102.59368752 -172.82108609 105.40139749 -175.67082024 108.21837234 C-176.74973571 109.27891617 -177.83427492 110.3337756 -178.92492867 111.38224411 C-191.09557835 123.08696791 -201.84597281 138.68913805 -202.23828125 156.18359375 C-202.54242248 172.4986397 -202.54242248 172.4986397 -198 188 C-197.649375 188.86109375 -197.29875 189.7221875 -196.9375 190.609375 C-190.40158276 205.22441217 -178.66640683 215.21423413 -163.9375 221 C-148.34614931 226.55044376 -131.10128365 225.63337869 -116 219 C-102.79266306 212.17987567 -92.93188225 201.64633841 -82.57421875 191.203125 C-80.73329053 189.36302732 -78.89154444 187.52374756 -77.04902649 185.6852417 C-73.20702699 181.84773331 -69.37522301 178.00027532 -65.54956055 174.14648438 C-61.15724278 169.722117 -56.74910763 165.31400973 -52.33213109 160.91426969 C-48.04275412 156.64088047 -43.76498226 152.35607081 -39.49204445 148.06624603 C-37.69089828 146.25995742 -35.88697758 144.45643064 -34.08011436 142.6558609 C-17.37097986 125.98311746 -1.93337607 109.13657108 -1.67041016 84.08349609 C-1.67886963 82.68091553 -1.67886963 82.68091553 -1.6875 81.25 C-1.69595947 79.78747803 -1.69595947 79.78747803 -1.70458984 78.29541016 C-1.96643315 62.74814003 -6.7634896 49.5939105 -17.6484375 38.25390625 C-27.15227284 29.14474846 -36.87834579 23.96343168 -50.21875 23.82421875 C-51.39824219 23.80037109 -52.57773437 23.77652344 -53.79296875 23.75195312 C-56.264147 23.70898743 -58.7355567 23.67773533 -61.20703125 23.65820312 C-62.38652344 23.63048828 -63.56601562 23.60277344 -64.78125 23.57421875 C-65.85439453 23.55963623 -66.92753906 23.54505371 -68.03320312 23.5300293 C-71.70237869 22.87451743 -73.3526323 21.58136523 -76 19 C-78.71312958 14.05462376 -79.52226036 9.63399228 -79.4375 4.0625 C-79.42920166 3.3602832 -79.42090332 2.65806641 -79.41235352 1.93457031 C-79.23632588 -3.46026967 -78.66831565 -7.89756416 -75 -12 C-53.9729573 -27.66720828 -18.51281655 -14.23261829 0 0 Z " fill="#D7352D" transform="translate(802,609)"/>
<path d="M0 0 C7.87300155 6.74828704 7.87300155 6.74828704 11.43139648 10.33374023 C12.22589706 11.13154404 13.02039764 11.92934784 13.838974 12.75132751 C14.67457352 13.59522537 15.51017303 14.43912323 16.37109375 15.30859375 C17.25225357 16.19354019 18.13341339 17.07848663 19.04127502 17.99024963 C22.31488284 21.27805911 25.58395101 24.57036077 28.85266113 27.86303711 C32.06429456 31.09772785 35.27982213 34.32851579 38.49609375 37.55859375 C39.32966904 38.40046738 40.16324432 39.242341 41.02207947 40.10972595 C45.31330141 44.41871862 49.6695583 48.57317884 54.29420471 52.52372742 C56.81114046 54.70199773 59.1498166 57.01756294 61.5 59.375 C62.3559375 60.22835937 63.211875 61.08171875 64.09375 61.9609375 C66 64 66 64 66 65 C44.22 65 22.44 65 0 65 C0 43.55 0 22.1 0 0 Z " fill="#FEFCFC" transform="translate(593,177)"/>
<path d="M0 0 C0.96257473 -0.00322445 1.92514946 -0.00644889 2.91689312 -0.00977105 C3.98699812 -0.00822245 5.05710312 -0.00667385 6.15963554 -0.00507832 C7.28669501 -0.00734387 8.41375448 -0.00960943 9.57496727 -0.01194364 C13.38354484 -0.01831643 17.19208713 -0.01745217 21.00066948 -0.01662922 C23.71849008 -0.01907329 26.43630815 -0.02299213 29.15412712 -0.02680683 C35.79050485 -0.03513107 42.42687371 -0.03786251 49.06325622 -0.03841921 C54.45791116 -0.03889373 59.85256317 -0.04094528 65.24721718 -0.04411983 C80.53434625 -0.05293287 95.82146829 -0.05753844 111.10859992 -0.05678936 C111.93359322 -0.0567494 112.75858653 -0.05670945 113.60857964 -0.05666828 C114.43457825 -0.0566274 115.26057687 -0.05658652 116.11160575 -0.0565444 C129.48930183 -0.05613821 142.86696972 -0.06569919 156.24465765 -0.07980665 C169.97324577 -0.09417007 183.70182016 -0.10107678 197.43041599 -0.10021287 C205.14084873 -0.09988079 212.85125195 -0.10263256 220.56167793 -0.11339092 C227.12930819 -0.12249569 233.69689558 -0.12467154 240.26452942 -0.1178815 C243.6152432 -0.11461555 246.96580757 -0.11564817 250.31652451 -0.12323475 C253.95090682 -0.13093104 257.58507248 -0.12632524 261.21945 -0.11860371 C262.27617067 -0.12374727 263.33289133 -0.12889083 264.42163384 -0.13419026 C269.86938467 -0.10857939 274.42197617 0.31216712 279.5704937 2.12863445 C279.5704937 2.45863445 279.5704937 2.78863445 279.5704937 3.12863445 C243.69643164 3.17437968 207.82237467 3.20963727 171.94828947 3.23076511 C167.71615632 3.23326662 163.48402324 3.23585526 159.25189018 3.23849773 C158.40932375 3.23902235 157.56675731 3.23954698 156.69865856 3.24008749 C143.04337247 3.24879783 129.38810316 3.26457126 115.73282703 3.28294004 C101.72856991 3.30162161 87.72432161 3.31274748 73.72005254 3.31681144 C65.07379061 3.31956013 56.42757611 3.32825174 47.78132877 3.34446739 C41.85791944 3.35501277 35.93453475 3.35824065 30.01111671 3.35563721 C26.59003733 3.35435209 23.16904103 3.35636696 19.7479763 3.3670454 C16.04427275 3.37692923 12.34077567 3.37462736 8.63706779 3.36914349 C7.00430445 3.37788201 7.00430445 3.37788201 5.33855599 3.38679707 C3.85611994 3.38082393 3.85611994 3.38082393 2.34373569 3.37473011 C1.48822579 3.37548955 0.63271589 3.37624899 -0.24871856 3.37703145 C-2.4295063 3.12863445 -2.4295063 3.12863445 -5.4295063 1.12863445 C-3.83933167 -0.46154018 -2.20567231 0.00185567 0 0 Z " fill="#D94E46" transform="translate(298.4295063018799,118.87136554718018)"/>
<path d="M0 0 C0.99 0.495 0.99 0.495 2 1 C-5.56876992 8.59199686 -13.14028079 16.18124851 -20.71524906 23.76706123 C-24.23297211 27.28999052 -27.74976396 30.81383878 -31.2644043 34.33984375 C-34.65976202 37.7461109 -38.05759612 41.14988996 -41.4571209 44.55199814 C-42.7500805 45.84679752 -44.04216344 47.14247296 -45.33333015 48.43906021 C-47.14963639 50.2626839 -48.96910803 52.08309449 -50.78930664 53.90283203 C-51.31583328 54.43295395 -51.84235992 54.96307587 -52.38484192 55.50926208 C-55.60174776 58.71742947 -58.93593845 61.72135989 -62.41854 64.63940239 C-64.73946087 66.63618978 -66.8660835 68.80680805 -69 71 C-70 72 -71 73 -72 74 C-72.66 73.67 -73.32 73.34 -74 73 C-64.94516368 63.92200083 -55.88763389 54.84669864 -46.82664871 45.77483654 C-42.61943015 41.56239781 -38.41314756 37.34903321 -34.20898438 33.13354492 C-30.15226236 29.06596337 -26.09310764 25.00082427 -22.03224945 20.93737221 C-20.48282601 19.38610007 -18.93428349 17.83394755 -17.38663483 16.28090477 C-15.22003791 14.10705682 -13.05033969 11.93635048 -10.87988281 9.76635742 C-10.23971222 9.12259155 -9.59954163 8.47882568 -8.93997192 7.81555176 C-6.09551889 4.97767608 -3.32675053 2.28231537 0 0 Z " fill="#D32C23" transform="translate(777,460)"/>
<path d="M0 0 C4.29007324 1.43002441 7.09880655 3.54731558 10.5 6.5 C14.70736993 10.09911492 18.96945206 13.58354274 23.375 16.9375 C28.50706347 20.8513425 33.60267665 24.80704472 38.67016602 28.80419922 C41.75729243 31.23915235 44.8517597 33.66355042 47.9609375 36.0703125 C48.60554932 36.57119385 49.25016113 37.0720752 49.91430664 37.58813477 C51.15596418 38.55255533 52.399859 39.51410408 53.64624023 40.47241211 C57.88760487 43.77520974 57.88760487 43.77520974 59 46 C53.93718904 44.44221201 50.47906713 41.34822776 46.5 38 C45.06622164 36.81375222 43.63131165 35.62887096 42.1953125 34.4453125 C41.48536133 33.85911133 40.77541016 33.27291016 40.04394531 32.66894531 C37.19833863 30.3454184 34.29743993 28.10064818 31.375 25.875 C8.04491798 8.05982598 8.04491798 8.05982598 0 1 C0 0.67 0 0.34 0 0 Z " fill="#D22B22" transform="translate(221,446)"/>
<path d="M0 0 C3.71663415 1.63995368 6.76573571 4.00670835 9.9375 6.5 C11.10407672 7.40766769 12.27074594 8.31521653 13.4375 9.22265625 C14.03046875 9.68559082 14.6234375 10.14852539 15.234375 10.62548828 C17.43001447 12.3347596 19.63804923 14.02744909 21.84716797 15.71923828 C29.28228011 21.41484921 36.64582504 27.20045573 44 33 C43.01 33.33 42.02 33.66 41 34 C39.45483398 32.99829102 39.45483398 32.99829102 37.80859375 31.44140625 C34.05594241 28.02892189 30.11285749 24.98616127 26.0625 21.9375 C19.97218423 17.3136966 13.94725306 12.61914691 8 7.8125 C6.96758179 6.98383423 6.96758179 6.98383423 5.91430664 6.13842773 C1.1204155 2.24083099 1.1204155 2.24083099 0 0 Z " fill="#D32B22" transform="translate(300,508)"/>
<path d="M0 0 C5.86698458 4.90910955 11.22282417 10.15508817 16.5625 15.625 C18.43344787 17.44797485 20.28232731 19.06051581 22.3125 20.6875 C23.199375 21.450625 24.08625 22.21375 25 23 C25 23.66 25 24.32 25 25 C25.99 25.33 26.98 25.66 28 26 C27.34 26.66 26.68 27.32 26 28 C22.2908542 24.34017795 18.58823822 20.67392152 14.89160156 17.00146484 C13.63232287 15.75226298 12.37125764 14.50485944 11.10839844 13.25927734 C9.29673588 11.47178925 7.49153161 9.67799773 5.6875 7.8828125 C5.11878174 7.32441681 4.55006348 6.76602112 3.96411133 6.19070435 C2.6042535 4.83124115 1.29658827 3.41993393 0 2 C0 1.34 0 0.68 0 0 Z " fill="#D22920" transform="translate(598,180)"/>
<path d="M0 0 C-1.58561638 3.85593074 -4.06509954 6.33216291 -7 9.25 C-7.886875 10.14203125 -8.77375 11.0340625 -9.6875 11.953125 C-12 14 -12 14 -14 14 C-14.33 14.99 -14.66 15.98 -15 17 C-15.66 17 -16.32 17 -17 17 C-17.66 18.32 -18.32 19.64 -19 21 C-19.66 20.34 -20.32 19.68 -21 19 C-17.88307091 15.82530062 -14.75516454 12.66164608 -11.625 9.5 C-10.73554687 8.59378906 -9.84609375 7.68757812 -8.9296875 6.75390625 C-8.07890625 5.89667969 -7.228125 5.03945313 -6.3515625 4.15625 C-5.17327881 2.96225586 -5.17327881 2.96225586 -3.97119141 1.74414062 C-2 0 -2 0 0 0 Z " fill="#D8433B" transform="translate(756,535)"/>
<path d="M0 0 C3.83502408 1.32080375 6.30706241 2.91350882 9.25 5.6875 C13.09711892 9.24366035 17.09709494 12.39808029 21.34765625 15.45703125 C21.89292969 15.96621094 22.43820313 16.47539062 23 17 C23 17.99 23 18.98 23 20 C20.47784508 17.95996173 17.95752748 15.91766545 15.4375 13.875 C14.73302734 13.30523437 14.02855469 12.73546875 13.30273438 12.1484375 C8.80636035 8.5016088 4.33437636 4.83885633 0 1 C0 0.67 0 0.34 0 0 Z " fill="#D32D24" transform="translate(171,406)"/>
<path d="M0 0 C0.66 0 1.32 0 2 0 C2.98432273 1.08426935 3.91138021 2.22065414 4.8125 3.375 C9.73601399 9.22036341 15.87405356 13.50456863 22 18 C21.34 18.33 20.68 18.66 20 19 C5.13356562 8.29616725 5.13356562 8.29616725 0 2 C0 1.34 0 0.68 0 0 Z " fill="#D22A21" transform="translate(586,839)"/>
<path d="M0 0 C3.30949515 1.43411456 5.39664885 3.20973364 7.875 5.8125 C11.09720225 9.12521355 14.39330023 12.11464018 18 15 C17.34 15.66 16.68 16.32 16 17 C13.32932797 14.3581833 10.66414667 11.7108958 8 9.0625 C7.236875 8.30775391 6.47375 7.55300781 5.6875 6.77539062 C4.965625 6.05673828 4.24375 5.33808594 3.5 4.59765625 C2.8296875 3.93258057 2.159375 3.26750488 1.46875 2.58227539 C0 1 0 1 0 0 Z " fill="#D2281F" transform="translate(585,609)"/>
<path d="M0 0 C0.99 0.33 1.98 0.66 3 1 C0.77656843 2.79920444 -1.45321682 4.5893591 -3.6875 6.375 C-4.31333984 6.88289063 -4.93917969 7.39078125 -5.58398438 7.9140625 C-8.92616981 10.57381217 -11.8682799 12.68859362 -16 14 C-12.59644821 10.52218889 -9.10082022 7.2555101 -5.375 4.125 C-3.96347656 2.92230469 -3.96347656 2.92230469 -2.5234375 1.6953125 C-1.69070313 1.13585937 -0.85796875 0.57640625 0 0 Z " fill="#D32C23" transform="translate(575,493)"/>
<path d="M0 0 C1.5 1.25 1.5 1.25 3 3 C3 4.32 3 5.64 3 7 C3.66 7 4.32 7 5 7 C5.33 8.32 5.66 9.64 6 11 C9.04386724 11.08226668 11.07175348 10.97608217 14 10 C14 10.66 14 11.32 14 12 C11.12529507 13.43735246 9.18105412 13.38172649 6 13 C2.9725903 10.05668501 1.26666808 7.0111156 0 3 C0 2.01 0 1.02 0 0 Z " fill="#D32F26" transform="translate(851,648)"/>
<path d="M0 0 C0.66 0 1.32 0 2 0 C2 0.66 2 1.32 2 2 C2.87205078 2.37318359 2.87205078 2.37318359 3.76171875 2.75390625 C6.31739197 4.17669815 7.87821677 5.75074191 9.8125 7.9375 C10.43769531 8.62714844 11.06289063 9.31679688 11.70703125 10.02734375 C12.34705078 11.00380859 12.34705078 11.00380859 13 12 C12.67 12.99 12.34 13.98 12 15 C11.38511719 14.31292969 10.77023437 13.62585938 10.13671875 12.91796875 C9.32847656 12.01691406 8.52023437 11.11585938 7.6875 10.1875 C6.88699219 9.29417969 6.08648438 8.40085937 5.26171875 7.48046875 C3.95386936 6.04612616 2.61592469 4.63600706 1.20703125 3.30078125 C0 2 0 2 0 0 Z " fill="#D32D24" transform="translate(779,640)"/>
<path d="M0 0 C0.68835938 0.59748047 0.68835938 0.59748047 1.390625 1.20703125 C5.31674827 4.60015709 5.31674827 4.60015709 9.4375 7.75 C9.953125 8.1625 10.46875 8.575 11 9 C11 9.66 11 10.32 11 11 C12.32 11.66 13.64 12.32 15 13 C14.34 13.66 13.68 14.32 13 15 C10.82722286 12.88094537 8.66173092 10.75527122 6.5 8.625 C5.87996094 8.02171875 5.25992188 7.4184375 4.62109375 6.796875 C4.03457031 6.21679688 3.44804688 5.63671875 2.84375 5.0390625 C2.29912109 4.50490723 1.75449219 3.97075195 1.19335938 3.42041016 C0 2 0 2 0 0 Z " fill="#D22B22" transform="translate(541,566)"/>
<path d="M0 0 C0.99 0.33 1.98 0.66 3 1 C-1.75 5 -1.75 5 -4 5 C-4 5.66 -4 6.32 -4 7 C-6.31 8.32 -8.62 9.64 -11 11 C-9.52934075 7.41477124 -7.59934458 5.55613904 -4.5625 3.1875 C-3.78003906 2.56230469 -2.99757813 1.93710937 -2.19140625 1.29296875 C-1.10666016 0.65294922 -1.10666016 0.65294922 0 0 Z " fill="#D22920" transform="translate(660,426)"/>
<path d="M0 0 C2.60085248 2.43279739 4.62822835 5.09888774 6.6875 8 C7.62142578 9.299375 7.62142578 9.299375 8.57421875 10.625 C10 13 10 13 10 16 C8.62437146 14.71034824 7.29233607 13.37310707 6 12 C6 11.34 6 10.68 6 10 C5.34 10 4.68 10 4 10 C3.32845067 8.71086513 2.66291141 7.41859796 2 6.125 C1.62875 5.40570312 1.2575 4.68640625 0.875 3.9453125 C0 2 0 2 0 0 Z " fill="#D32B22" transform="translate(709,644)"/>
<path d="M0 0 C3.2826932 1.49076434 5.93077441 3.38620321 8.75 5.625 C9.94882812 6.57246094 9.94882812 6.57246094 11.171875 7.5390625 C11.77515625 8.02117187 12.3784375 8.50328125 13 9 C12.01 9.33 11.02 9.66 10 10 C8.02734375 8.6015625 8.02734375 8.6015625 5.9375 6.625 C3.18958113 3.99549245 3.18958113 3.99549245 0 2 C0 1.34 0 0.68 0 0 Z " fill="#D22A21" transform="translate(253,431)"/>
<path d="M0 0 C0.99 0.33 1.98 0.66 3 1 C-0.96 3.97 -4.92 6.94 -9 10 C-9.66 9.67 -10.32 9.34 -11 9 C-9.23977508 7.46690087 -7.46646537 5.94881299 -5.6875 4.4375 C-4.70136719 3.59058594 -3.71523438 2.74367188 -2.69921875 1.87109375 C-1.80847656 1.25363281 -0.91773438 0.63617187 0 0 Z " fill="#D22920" transform="translate(484,565)"/>
<path d="M0 0 C5.40489519 1.52012677 8.98492628 5.27385218 13 9 C12.01 9.495 12.01 9.495 11 10 C10.37351562 9.50628906 9.74703125 9.01257813 9.1015625 8.50390625 C8.28429687 7.86324219 7.46703125 7.22257813 6.625 6.5625 C5.81289063 5.92441406 5.00078125 5.28632812 4.1640625 4.62890625 C2.10601894 2.97776453 2.10601894 2.97776453 0 2 C0 1.34 0 0.68 0 0 Z " fill="#D32C23" transform="translate(399,546)"/>
<path d="M0 0 C4.98012761 1.50912958 8.24259942 4.55661849 12 8 C11.01 8.495 11.01 8.495 10 9 C8.70391053 8.06862408 7.41328368 7.1296434 6.125 6.1875 C5.40570313 5.66542969 4.68640625 5.14335938 3.9453125 4.60546875 C2 3 2 3 0 0 Z " fill="#D32B22" transform="translate(361,516)"/>
<path d="M0 0 C4.98012761 1.50912958 8.24259942 4.55661849 12 8 C11.01 8.33 10.02 8.66 9 9 C7.49704815 7.69088122 5.99770689 6.37761608 4.5 5.0625 C3.6646875 4.33160156 2.829375 3.60070312 1.96875 2.84765625 C1.3190625 2.23792969 0.669375 1.62820313 0 1 C0 0.67 0 0.34 0 0 Z " fill="#D22920" transform="translate(374,567)"/>
<path d="M0 0 C4.29238623 1.65091778 6.8793915 4.73754566 10 8 C9.67 8.99 9.34 9.98 9 11 C8.51789062 10.43410156 8.03578125 9.86820312 7.5390625 9.28515625 C6.90742187 8.55167969 6.27578125 7.81820313 5.625 7.0625 C4.99851562 6.33160156 4.37203125 5.60070312 3.7265625 4.84765625 C2.12252286 2.91619094 2.12252286 2.91619094 0 2 C0 1.34 0 0.68 0 0 Z " fill="#D1251C" transform="translate(796,340)"/>
<path d="M0 0 C4.59306496 1.4859916 7.43569245 3.85014682 11 7 C10.67 7.66 10.34 8.32 10 9 C8.33043913 7.69118353 6.66441696 6.37785174 5 5.0625 C4.071875 4.33160156 3.14375 3.60070312 2.1875 2.84765625 C1.465625 2.23792969 0.74375 1.62820313 0 1 C0 0.67 0 0.34 0 0 Z " fill="#D22920" transform="translate(381,532)"/>
<path d="M0 0 C4.59306496 1.4859916 7.43569245 3.85014682 11 7 C10.01 7.495 10.01 7.495 9 8 C7.68388323 7.04663979 6.37221039 6.08714226 5.0625 5.125 C4.33160156 4.59132813 3.60070312 4.05765625 2.84765625 3.5078125 C1 2 1 2 0 0 Z " fill="#D22A21" transform="translate(240,421)"/>
<path d="M0 0 C2.8125 -0.25 2.8125 -0.25 6 0 C7.875 2 7.875 2 9 4 C8.01 4 7.02 4 6 4 C6 3.34 6 2.68 6 2 C4.35 2 2.7 2 1 2 C0.67 1.34 0.34 0.68 0 0 Z " fill="#D42F26" transform="translate(643,647)"/>
<path d="M0 0 C4.43458973 1.3937282 6.87378374 3.60582235 10 7 C5.61308455 6.49381745 3.15608721 3.86917019 0 1 C0 0.67 0 0.34 0 0 Z " fill="#D2281F" transform="translate(418,602)"/>
<path d="M0 0 C0.99 0.33 1.98 0.66 3 1 C-1.455 3.97 -1.455 3.97 -6 7 C-4.14418503 3.28837006 -3.44285416 1.98224936 0 0 Z " fill="#D2281F" transform="translate(683,408)"/>
<path d="M0 0 C0.99 0.33 1.98 0.66 3 1 C0.69 2.65 -1.62 4.3 -4 6 C-4.66 5.67 -5.32 5.34 -6 5 C-1.60546875 0.99609375 -1.60546875 0.99609375 0 0 Z " fill="#D22920" transform="translate(692,401)"/>
</svg>
